<svg width="2048" height="1014" viewBox="0 0 2048 1014" fill="none" xmlns="http://www.w3.org/2000/svg">
<g id="Background_Abstract_03">
<rect id="Mask" width="2048" height="1014" fill="white"/>
<mask id="mask0_0_12927" style="mask-type:luminance" maskUnits="userSpaceOnUse" x="0" y="0" width="2048" height="1014">
<rect id="Mask_2" width="2048" height="1014" fill="white"/>
</mask>
<g mask="url(#mask0_0_12927)">
<g id="background">
<g id="Group">
<g id="Fill 1 Copy 6">
<path fill-rule="evenodd" clip-rule="evenodd" d="M1614.2 1489.52C1614.2 1489.52 1510.48 1471.27 1473.88 1434.8C1437.25 1398.35 1418.96 1351.78 1418.96 1295.09V793.728C1418.96 638.983 1473.67 507.345 1583.1 398.779C1692.49 290.225 1824.92 235.96 1980.29 235.96C2135.66 235.96 2268.09 290.225 2377.47 398.779C2486.92 507.345 2541.62 638.983 2541.62 793.728V1295.09C2541.62 1351.78 2523.33 1398.35 2486.69 1434.8C2450.11 1471.27 2346.38 1489.52 2346.38 1489.52C2289.43 1489.52 1614.2 1489.52 1614.2 1489.52Z" fill="url(#paint0_linear_0_12927)"/>
<path fill-rule="evenodd" clip-rule="evenodd" d="M1614.2 1489.52C1614.2 1489.52 1510.48 1471.27 1473.88 1434.8C1437.25 1398.35 1418.96 1351.78 1418.96 1295.09V793.728C1418.96 638.983 1473.67 507.345 1583.1 398.779C1692.49 290.225 1824.92 235.96 1980.29 235.96C2135.66 235.96 2268.09 290.225 2377.47 398.779C2486.92 507.345 2541.62 638.983 2541.62 793.728V1295.09C2541.62 1351.78 2523.33 1398.35 2486.69 1434.8C2450.11 1471.27 2346.38 1489.52 2346.38 1489.52C2289.43 1489.52 1614.2 1489.52 1614.2 1489.52Z" fill="url(#paint1_linear_0_12927)"/>
</g>
<circle id="Oval Copy 13" cx="1077.08" cy="905.94" r="401.94" fill="url(#paint2_linear_0_12927)"/>
<g id="Fill 1 Copy 3">
<path fill-rule="evenodd" clip-rule="evenodd" d="M1313.37 1086.79C1293.27 1066.77 1283.24 1041.19 1283.24 1010.04V488.877C1283.24 463.055 1274.09 441.035 1255.79 422.79C1237.49 404.532 1215.4 395.423 1189.5 395.423C1163.61 395.423 1141.5 404.532 1123.21 422.79C1104.91 441.035 1095.76 463.055 1095.76 488.877V1010.04C1095.76 1041.19 1085.72 1066.77 1065.62 1086.79C1045.55 1106.82 1019.88 1116.84 988.63 1116.84C957.384 1116.84 931.716 1106.82 911.634 1086.79C891.538 1066.77 881.5 1041.2 881.5 1010.07V488.353C881.5 403.376 911.519 331.089 971.563 271.471C1031.59 211.859 1104.25 182.06 1189.5 182.06C1274.75 182.06 1347.41 211.859 1407.43 271.471C1467.49 331.089 1497.5 403.376 1497.5 488.353V1010.07C1497.5 1041.2 1487.46 1066.77 1467.36 1086.79C1447.29 1106.82 1421.62 1116.84 1390.37 1116.84C1359.12 1116.84 1333.45 1106.82 1313.37 1086.79Z" fill="#EBDDF5"/>
<path fill-rule="evenodd" clip-rule="evenodd" d="M1313.37 1086.79C1293.27 1066.77 1283.24 1041.19 1283.24 1010.04V488.877C1283.24 463.055 1274.09 441.035 1255.79 422.79C1237.49 404.532 1215.4 395.423 1189.5 395.423C1163.61 395.423 1141.5 404.532 1123.21 422.79C1104.91 441.035 1095.76 463.055 1095.76 488.877V1010.04C1095.76 1041.19 1085.72 1066.77 1065.62 1086.79C1045.55 1106.82 1019.88 1116.84 988.63 1116.84C957.384 1116.84 931.716 1106.82 911.634 1086.79C891.538 1066.77 881.5 1041.2 881.5 1010.07V488.353C881.5 403.376 911.519 331.089 971.563 271.471C1031.59 211.859 1104.25 182.06 1189.5 182.06C1274.75 182.06 1347.41 211.859 1407.43 271.471C1467.49 331.089 1497.5 403.376 1497.5 488.353V1010.07C1497.5 1041.2 1487.46 1066.77 1467.36 1086.79C1447.29 1106.82 1421.62 1116.84 1390.37 1116.84C1359.12 1116.84 1333.45 1106.82 1313.37 1086.79Z" fill="url(#paint3_linear_0_12927)"/>
<path fill-rule="evenodd" clip-rule="evenodd" d="M1313.37 1086.79C1293.27 1066.77 1283.24 1041.19 1283.24 1010.04V488.877C1283.24 463.055 1274.09 441.035 1255.79 422.79C1237.49 404.532 1215.4 395.423 1189.5 395.423C1163.61 395.423 1141.5 404.532 1123.21 422.79C1104.91 441.035 1095.76 463.055 1095.76 488.877V1010.04C1095.76 1041.19 1085.72 1066.77 1065.62 1086.79C1045.55 1106.82 1019.88 1116.84 988.63 1116.84C957.384 1116.84 931.716 1106.82 911.634 1086.79C891.538 1066.77 881.5 1041.2 881.5 1010.07V488.353C881.5 403.376 911.519 331.089 971.563 271.471C1031.59 211.859 1104.25 182.06 1189.5 182.06C1274.75 182.06 1347.41 211.859 1407.43 271.471C1467.49 331.089 1497.5 403.376 1497.5 488.353V1010.07C1497.5 1041.2 1487.46 1066.77 1467.36 1086.79C1447.29 1106.82 1421.62 1116.84 1390.37 1116.84C1359.12 1116.84 1333.45 1106.82 1313.37 1086.79Z" fill="url(#paint4_linear_0_12927)"/>
</g>
<path id="Fill 3 Copy 2" fill-rule="evenodd" clip-rule="evenodd" d="M730.395 440.276C705.814 440.276 681.929 444.247 658.741 452.159V287.821C658.741 263.711 651.052 243.901 635.706 228.4C620.345 212.905 600.715 205.16 576.85 205.16C552.945 205.16 533.345 212.905 517.979 228.4C502.633 243.901 494.96 263.711 494.96 287.821V910.486C494.96 934.596 502.633 954.396 517.979 969.891C533.345 985.397 552.945 993.147 576.85 993.147C600.715 993.147 620.345 985.397 635.706 969.876C651.052 954.359 658.741 934.528 658.741 910.403V678.015C658.741 658.017 665.712 640.955 679.722 626.808C693.712 612.676 710.605 605.608 730.395 605.608C750.17 605.608 767.063 612.676 781.053 626.808C795.037 640.955 802.05 658.017 802.05 678.015V910.403C802.05 934.528 809.723 954.359 825.068 969.876C840.43 985.397 860.035 993.147 883.94 993.147C907.81 993.147 927.43 985.397 942.796 969.886C958.137 954.37 965.83 934.549 965.83 910.419V677.614C965.83 611.776 942.869 555.754 896.986 509.57C851.083 463.376 795.563 440.276 730.395 440.276Z" fill="url(#paint5_linear_0_12927)"/>
<g id="Fill 3 Copy 3">
<path fill-rule="evenodd" clip-rule="evenodd" d="M966 1819.98C966 1871.9 949.476 1914.57 916.495 1947.95C883.48 1981.32 841.289 1998 790 1998C738.622 1998 696.498 1981.32 663.472 1947.95C630.491 1914.57 614 1871.9 614 1819.98V479.017C614 427.095 630.491 384.454 663.472 351.084C696.498 317.691 738.622 301 790 301C841.289 301 883.48 317.691 916.495 351.117C949.476 384.533 966 427.241 966 479.197V1819.98Z" fill="#EBDDF5"/>
<path fill-rule="evenodd" clip-rule="evenodd" d="M966 1819.98C966 1871.9 949.476 1914.57 916.495 1947.95C883.48 1981.32 841.289 1998 790 1998C738.622 1998 696.498 1981.32 663.472 1947.95C630.491 1914.57 614 1871.9 614 1819.98V479.017C614 427.095 630.491 384.454 663.472 351.084C696.498 317.691 738.622 301 790 301C841.289 301 883.48 317.691 916.495 351.117C949.476 384.533 966 427.241 966 479.197V1819.98Z" fill="url(#paint6_linear_0_12927)"/>
</g>
<path id="Fill 1 Copy 3_2" fill-rule="evenodd" clip-rule="evenodd" d="M81.5762 144.788C96.8039 159.969 104.402 179.374 104.402 202.998V522.253C104.402 541.837 111.331 558.536 125.195 572.373C139.058 586.22 155.793 593.128 175.41 593.128C195.022 593.128 211.767 586.22 225.626 572.373C239.484 558.536 246.418 541.837 246.418 522.253V202.998C246.418 179.374 254.022 159.969 269.249 144.788C284.451 129.601 303.9 122 327.569 122C351.238 122 370.682 129.601 385.894 144.788C401.117 159.969 408.72 179.364 408.72 202.972V411.771C408.72 476.216 408.72 791.9 408.72 791.9H-57.8998C-57.8998 791.9 -57.8998 470.452 -57.8998 411.771V202.972C-57.8998 179.364 -50.2962 159.969 -35.0685 144.788C-19.8664 129.601 -0.417997 122 23.2513 122C46.9206 122 66.369 129.601 81.5762 144.788Z" fill="url(#paint7_linear_0_12927)"/>
<g id="Oval Copy">
<circle cx="1647.38" cy="862.38" r="380.38" fill="url(#paint8_linear_0_12927)"/>
<circle cx="1647.38" cy="862.38" r="380.38" fill="url(#paint9_linear_0_12927)"/>
</g>
<g id="Fill 3 Copy 4">
<path fill-rule="evenodd" clip-rule="evenodd" d="M2145.16 518.537C2112.36 518.537 2080.49 523.831 2049.55 534.376V315.336C2049.55 283.201 2039.29 256.796 2018.81 236.136C1998.31 215.483 1972.12 205.16 1940.27 205.16C1908.37 205.16 1882.22 215.483 1861.72 236.136C1841.24 256.796 1831 283.201 1831 315.336V1145.26C1831 1177.4 1841.24 1203.79 1861.72 1224.44C1882.22 1245.11 1908.37 1255.44 1940.27 1255.44C1972.12 1255.44 1998.31 1245.11 2018.81 1224.42C2039.29 1203.74 2049.55 1177.31 2049.55 1145.15V835.411C2049.55 808.757 2058.85 786.016 2077.54 767.159C2096.21 748.324 2118.75 738.903 2145.16 738.903C2171.55 738.903 2194.09 748.324 2212.76 767.159C2231.42 786.016 2240.77 808.757 2240.77 835.411V1145.15C2240.77 1177.31 2251.01 1203.74 2271.49 1224.42C2291.99 1245.11 2318.15 1255.44 2350.05 1255.44C2381.9 1255.44 2408.08 1245.11 2428.58 1224.44C2449.05 1203.75 2459.32 1177.34 2459.32 1145.17V834.877C2459.32 747.124 2428.68 672.454 2367.46 610.897C2306.2 549.326 2232.12 518.537 2145.16 518.537Z" fill="url(#paint10_linear_0_12927)"/>
<path fill-rule="evenodd" clip-rule="evenodd" d="M2145.16 518.537C2112.36 518.537 2080.49 523.831 2049.55 534.376V315.336C2049.55 283.201 2039.29 256.796 2018.81 236.136C1998.31 215.483 1972.12 205.16 1940.27 205.16C1908.37 205.16 1882.22 215.483 1861.72 236.136C1841.24 256.796 1831 283.201 1831 315.336V1145.26C1831 1177.4 1841.24 1203.79 1861.72 1224.44C1882.22 1245.11 1908.37 1255.44 1940.27 1255.44C1972.12 1255.44 1998.31 1245.11 2018.81 1224.42C2039.29 1203.74 2049.55 1177.31 2049.55 1145.15V835.411C2049.55 808.757 2058.85 786.016 2077.54 767.159C2096.21 748.324 2118.75 738.903 2145.16 738.903C2171.55 738.903 2194.09 748.324 2212.76 767.159C2231.42 786.016 2240.77 808.757 2240.77 835.411V1145.15C2240.77 1177.31 2251.01 1203.74 2271.49 1224.42C2291.99 1245.11 2318.15 1255.44 2350.05 1255.44C2381.9 1255.44 2408.08 1245.11 2428.58 1224.44C2449.05 1203.75 2459.32 1177.34 2459.32 1145.17V834.877C2459.32 747.124 2428.68 672.454 2367.46 610.897C2306.2 549.326 2232.12 518.537 2145.16 518.537Z" fill="url(#paint11_linear_0_12927)"/>
</g>
<circle id="Oval" cx="297.7" cy="961.7" r="469.7" fill="url(#paint12_linear_0_12927)"/>
<g id="Fill 1 Copy 3_3">
<path fill-rule="evenodd" clip-rule="evenodd" d="M273.87 924.34C242.623 924.34 216.949 914.318 196.873 894.293C176.771 874.274 166.74 848.687 166.74 817.538V542.777C166.74 516.955 157.592 494.935 139.291 476.69C120.99 458.432 98.8971 449.323 73 449.323C47.1096 449.323 25.0036 458.432 6.70897 476.69C-11.5857 494.935 -20.7397 516.955 -20.7397 542.777V817.538C-20.7397 848.687 -30.7775 874.274 -50.88 894.293C-70.9487 914.318 -96.6233 924.34 -127.87 924.34C-159.116 924.34 -184.784 914.318 -204.866 894.293C-224.962 874.274 -235 848.701 -235 817.571V542.253C-235 457.276 -204.981 384.989 -144.937 325.371C-84.9126 265.759 -12.2535 235.96 73 235.96C158.253 235.96 230.913 265.759 290.93 325.371C350.988 384.989 381 457.276 381 542.253V817.571C381 848.701 370.962 874.274 350.86 894.293C330.791 914.318 305.116 924.34 273.87 924.34" fill="url(#paint13_linear_0_12927)"/>
<path fill-rule="evenodd" clip-rule="evenodd" d="M273.87 924.34C242.623 924.34 216.949 914.318 196.873 894.293C176.771 874.274 166.74 848.687 166.74 817.538V542.777C166.74 516.955 157.592 494.935 139.291 476.69C120.99 458.432 98.8971 449.323 73 449.323C47.1096 449.323 25.0036 458.432 6.70897 476.69C-11.5857 494.935 -20.7397 516.955 -20.7397 542.777V817.538C-20.7397 848.687 -30.7775 874.274 -50.88 894.293C-70.9487 914.318 -96.6233 924.34 -127.87 924.34C-159.116 924.34 -184.784 914.318 -204.866 894.293C-224.962 874.274 -235 848.701 -235 817.571V542.253C-235 457.276 -204.981 384.989 -144.937 325.371C-84.9126 265.759 -12.2535 235.96 73 235.96C158.253 235.96 230.913 265.759 290.93 325.371C350.988 384.989 381 457.276 381 542.253V817.571C381 848.701 370.962 874.274 350.86 894.293C330.791 914.318 305.116 924.34 273.87 924.34" fill="url(#paint14_linear_0_12927)"/>
</g>
</g>
<path id="Path 3" fill-rule="evenodd" clip-rule="evenodd" d="M0 663H2050L2049.98 1017H0V663Z" fill="url(#paint15_linear_0_12927)"/>
</g>
</g>
</g>
<defs>
<linearGradient id="paint0_linear_0_12927" x1="2591.82" y1="3778.76" x2="-301.593" y2="1587.72" gradientUnits="userSpaceOnUse">
<stop stop-color="#D3CBEC"/>
<stop offset="1" stop-color="white"/>
</linearGradient>
<linearGradient id="paint1_linear_0_12927" x1="1670.64" y1="754.207" x2="1264.65" y2="335.645" gradientUnits="userSpaceOnUse">
<stop stop-color="white" stop-opacity="0.01"/>
<stop offset="1" stop-color="white"/>
</linearGradient>
<linearGradient id="paint2_linear_0_12927" x1="1442.27" y1="1891.02" x2="2232.27" y2="491.439" gradientUnits="userSpaceOnUse">
<stop stop-color="#D3CBEC"/>
<stop offset="1" stop-color="white"/>
</linearGradient>
<linearGradient id="paint3_linear_0_12927" x1="1088.12" y1="819.078" x2="896.948" y2="846.685" gradientUnits="userSpaceOnUse">
<stop stop-color="#999DCF" stop-opacity="0.01"/>
<stop offset="1" stop-color="#999DCF"/>
</linearGradient>
<linearGradient id="paint4_linear_0_12927" x1="917.446" y1="195.049" x2="1339.85" y2="35.2797" gradientUnits="userSpaceOnUse">
<stop stop-color="white" stop-opacity="0.01"/>
<stop offset="1" stop-color="#FAFCFD"/>
</linearGradient>
<linearGradient id="paint5_linear_0_12927" x1="562.435" y1="1190.48" x2="1141.15" y2="760.021" gradientUnits="userSpaceOnUse">
<stop stop-color="#BABDE4"/>
<stop offset="1" stop-color="white"/>
</linearGradient>
<linearGradient id="paint6_linear_0_12927" x1="727.366" y1="1211.41" x2="522.192" y2="1223.03" gradientUnits="userSpaceOnUse">
<stop stop-color="#999DCF" stop-opacity="0.01"/>
<stop offset="1" stop-color="#999DCF"/>
</linearGradient>
<linearGradient id="paint7_linear_0_12927" x1="-507.944" y1="578.739" x2="315.24" y2="-8.94136" gradientUnits="userSpaceOnUse">
<stop stop-color="#EBDDF5"/>
<stop offset="1" stop-color="#F7F1FB"/>
</linearGradient>
<linearGradient id="paint8_linear_0_12927" x1="1619.43" y1="294.955" x2="1146.16" y2="686.764" gradientUnits="userSpaceOnUse">
<stop stop-color="#BABDE4"/>
<stop offset="0.511824" stop-color="#EBDDF5"/>
<stop offset="1" stop-color="#ECBACB"/>
</linearGradient>
<linearGradient id="paint9_linear_0_12927" x1="1563.08" y1="303.372" x2="1563.08" y2="577.853" gradientUnits="userSpaceOnUse">
<stop stop-color="white"/>
<stop offset="1" stop-color="white" stop-opacity="0.01"/>
</linearGradient>
<linearGradient id="paint10_linear_0_12927" x1="1656.06" y1="572.247" x2="2279.66" y2="916.913" gradientUnits="userSpaceOnUse">
<stop stop-color="#DEE0F3"/>
<stop offset="1" stop-color="#BABDE4"/>
</linearGradient>
<linearGradient id="paint11_linear_0_12927" x1="2034.56" y1="727.027" x2="1881.1" y2="987.828" gradientUnits="userSpaceOnUse">
<stop stop-color="#999DCF" stop-opacity="0.01"/>
<stop offset="1" stop-color="#999DCF"/>
<stop offset="1" stop-color="#999DCF"/>
</linearGradient>
<linearGradient id="paint12_linear_0_12927" x1="-49.7975" y1="197.76" x2="-638.277" y2="988.851" gradientUnits="userSpaceOnUse">
<stop stop-color="#EBDDF5"/>
<stop offset="1" stop-color="#ECBACB"/>
</linearGradient>
<linearGradient id="paint13_linear_0_12927" x1="-609.558" y1="353.423" x2="377.536" y2="-635.736" gradientUnits="userSpaceOnUse">
<stop stop-color="#D3CBEC"/>
<stop offset="1" stop-color="white"/>
</linearGradient>
<linearGradient id="paint14_linear_0_12927" x1="592.975" y1="463.886" x2="772.826" y2="1077.63" gradientUnits="userSpaceOnUse">
<stop stop-color="#172687" stop-opacity="0.01"/>
<stop offset="1" stop-color="#151A21"/>
</linearGradient>
<linearGradient id="paint15_linear_0_12927" x1="-2478.43" y1="-217.186" x2="-2467.46" y2="912.901" gradientUnits="userSpaceOnUse">
<stop stop-color="#ECBACB"/>
<stop offset="0.44753" stop-color="#EBDDF5"/>
<stop offset="1" stop-color="white"/>
</linearGradient>
</defs>
</svg>
