<svg xmlns="http://www.w3.org/2000/svg" viewBox="0 0 16 16" fill="none">
  <path d="M5.858 6.508c-1.18 5.229-3.844 2.94-3.844 2.94s-.445-.507-.626 0c-.47 2.06 1.253 3.385 2.434 3.506 6.06.618 7.831-5 7.831-5S11.841 7 11.058 7c-.12-.301-.598-.228-1.08-.59-.481-.361-.795-.91-.795-.91s-.361.006-.819-.463c-.458-.47-.868-.518-.868-.518s-1.326.734-1.638 1.988Z" fill="#D0D1D3" stroke="#A1A3A6"/>
  <path d="M10.37 3.834c.049-.262.024-.54-.042-.807-.16-.657-.248-1.51.404-1.691.34-.095 1.204-.15 1.362.167.68 1.362.02 2.792-.46 3.554-.218.345-.426.559-.784.362-.48-.264-.582-1.046-.48-1.585Z" fill="#D6D7EF" stroke="#A1A3A6"/>
  <path d="M10.59 7.806c-.387-.24-1.078-.315-1.533-.337a.578.578 0 0 1-.532-.45c-.098-.45-.296-1.129-.64-1.48-.515-.523-1.465-.34-1.567-.319l-.017.004c-.063.012-.464.087-.89.16-.417.073-.581-.28-.216-.497.868-.516 2.069-.967 2.675-1.07.673-.113 1.202 0 1.46.072a7.258 7.258 0 0 1 1.272.674c2.96 1.778 1.176 6.29 1.033 5.596-.143-.695-.05-.526-.173-.851-.233-.62-.218-1.096-.872-1.502Z" fill="#D6D7EF" stroke="#A1A3A6"/>
</svg>
