<svg width="342" height="513" viewBox="0 0 342 513" fill="none" xmlns="http://www.w3.org/2000/svg">
<path fill-rule="evenodd" clip-rule="evenodd" d="M40.5814 358.581C35.0637 355.168 27.817 356.993 24.5731 362.611L0 405.173C7.00506 409.218 15.9428 407.189 20.515 400.516L30.6043 385.792C31.4453 384.565 32.8986 383.907 34.3551 384.212C37.1367 384.792 41.9351 386.083 46.4628 388.697C53.391 392.697 72.0106 403.447 72.0106 403.447L83.7606 383.096L44.5394 361.029L40.5814 358.581Z" fill="#FAB4CC"/>
<mask id="mask0_129_350" style="mask-type:luminance" maskUnits="userSpaceOnUse" x="0" y="356" width="84" height="52">
<path fill-rule="evenodd" clip-rule="evenodd" d="M40.5814 358.581C35.0637 355.168 27.817 356.993 24.5731 362.611L0 405.173C7.00506 409.218 15.9428 407.189 20.515 400.516L30.6043 385.792C31.4453 384.565 32.8986 383.907 34.3551 384.212C37.1367 384.792 41.9351 386.083 46.4628 388.697C53.391 392.697 72.0106 403.447 72.0106 403.447L83.7606 383.096L44.5394 361.029L40.5814 358.581Z" fill="white"/>
</mask>
<g mask="url(#mask0_129_350)">
<path d="M8.14738 407.061L18.6781 388.821L34.2666 397.821L40.7666 386.563L25.1781 377.563L37.1571 356.815C32.3986 355.777 27.3154 357.861 24.7499 362.305L-5.85318e-05 405.173C2.56555 406.654 5.39875 407.252 8.14738 407.061Z" fill="#151A21"/>
</g>
<path fill-rule="evenodd" clip-rule="evenodd" d="M190.522 500.66C190.326 507.145 195.529 512.509 202.017 512.509H251.163C251.163 504.42 244.937 497.694 236.873 497.071L219.077 495.695C217.593 495.581 216.297 494.651 215.832 493.237C214.945 490.538 213.663 485.737 213.663 480.509C213.663 472.509 213.663 451.009 213.663 451.009H190.163L190.663 496.009L190.522 500.66Z" fill="#FAB4CC"/>
<mask id="mask1_129_350" style="mask-type:luminance" maskUnits="userSpaceOnUse" x="190" y="451" width="62" height="62">
<path fill-rule="evenodd" clip-rule="evenodd" d="M190.522 500.66C190.326 507.145 195.529 512.509 202.017 512.509H251.163C251.163 504.42 244.937 497.694 236.873 497.071L219.077 495.695C217.593 495.581 216.297 494.651 215.832 493.237C214.945 490.538 213.663 485.737 213.663 480.509C213.663 472.509 213.663 451.009 213.663 451.009H190.163L190.663 496.009L190.522 500.66Z" fill="white"/>
</mask>
<g mask="url(#mask1_129_350)">
<path d="M248.725 504.509H227.663V486.509H214.663V504.509H190.705C192.186 509.149 196.532 512.509 201.663 512.509H251.163C251.163 509.546 250.265 506.794 248.725 504.509Z" fill="#151A21"/>
</g>
<path d="M157.091 221.974C157.091 221.974 191.164 275.009 204.164 334.009C217.164 393.009 202.164 447.009 202.164 447.009" stroke="url(#paint0_linear_129_350)" stroke-width="60" stroke-linecap="round"/>
<path d="M128.164 216.009C128.181 256.372 171.164 297.009 157.164 352.009C143.164 407.009 69.1636 391.009 69.1636 391.009" stroke="url(#paint1_linear_129_350)" stroke-width="60" stroke-linecap="round"/>
<path d="M128.164 216.009C128.181 256.372 171.164 297.009 157.164 352.009C143.164 407.009 69.1636 391.009 69.1636 391.009" stroke="url(#paint2_linear_129_350)" stroke-width="60" stroke-linecap="round"/>
<path fill-rule="evenodd" clip-rule="evenodd" d="M94.3008 292.621C97.3653 293.442 99.1839 296.592 98.3628 299.656L91.5752 324.988C82.2446 324.15 77.3763 314.131 75.8224 310.222C75.4233 309.219 75.4085 308.121 75.688 307.078L79.0624 294.485C79.8835 291.42 83.0335 289.602 86.0981 290.423L94.3008 292.621Z" fill="#FAB4CC"/>
<path fill-rule="evenodd" clip-rule="evenodd" d="M94.3008 292.621C97.3653 293.442 99.1839 296.592 98.3628 299.656L91.5752 324.988C82.2446 324.15 77.3763 314.131 75.8224 310.222C75.4233 309.219 75.4085 308.121 75.688 307.078L79.0624 294.485C79.8835 291.42 83.0335 289.602 86.0981 290.423L94.3008 292.621Z" fill="url(#paint3_linear_129_350)"/>
<path fill-rule="evenodd" clip-rule="evenodd" d="M295.466 89.1341C298.429 90.2676 301.75 88.7843 302.883 85.8211L312.253 61.3265C304.206 56.5298 294.385 61.7854 290.833 64.0381C289.921 64.6167 289.265 65.4963 288.879 66.5052L284.221 78.6824C283.087 81.6456 284.571 84.9667 287.534 86.1002L295.466 89.1341Z" fill="#FAB4CC"/>
<path fill-rule="evenodd" clip-rule="evenodd" d="M295.466 89.1341C298.429 90.2676 301.75 88.7843 302.883 85.8211L312.253 61.3265C304.206 56.5298 294.385 61.7854 290.833 64.0381C289.921 64.6167 289.265 65.4963 288.879 66.5052L284.221 78.6824C283.087 81.6456 284.571 84.9667 287.534 86.1002L295.466 89.1341Z" fill="url(#paint4_linear_129_350)"/>
<path d="M307.046 77.1841C279.375 71.0489 258.868 93.5055 244.845 119.286C239.032 111.87 233.289 105.159 228.383 99.6704C219.646 89.895 207.037 84.7945 193.926 84.7945H153.008C141.345 84.7946 130.018 88.8157 121.744 97.0366C105.773 112.907 80.1404 142.163 72.9504 172.489L72.7063 172.424C72.7063 172.424 41.1595 290.157 100.026 305.93L109.225 271.6C118.425 281.719 131.646 288.104 146.4 288.104H197.51C225.098 288.104 247.463 265.745 247.463 238.157V192.866H265.714L280.662 196.18L307.046 77.1841Z" fill="#151A21"/>
<mask id="mask2_129_350" style="mask-type:luminance" maskUnits="userSpaceOnUse" x="64" y="84" width="278" height="335">
<path d="M341.609 382.234C323.632 324.066 207.391 359.928 207.164 359.998L225.158 418.224L341.609 382.234ZM153.009 84.7949C141.345 84.7949 130.018 88.816 121.744 97.0371C105.772 112.908 80.1401 142.163 72.9502 172.489L72.7061 172.425C72.684 172.507 41.18 290.163 100.025 305.931L109.225 271.601C118.425 281.72 131.645 288.104 146.399 288.104H197.51C225.098 288.104 247.463 265.745 247.463 238.157V192.866H278.509V187.866C278.509 159.967 247.251 120.783 228.383 99.6709C219.646 89.8954 207.036 84.7949 193.926 84.7949H153.009Z" fill="white"/>
</mask>
<g mask="url(#mask2_129_350)">
<path d="M72.5395 259.611C65.9714 254.503 59.7899 254.502 54.558 259.734C53.9722 260.32 53.9723 261.27 54.558 261.855C55.1438 262.441 56.0933 262.441 56.6791 261.855C60.7073 257.827 65.1058 257.755 70.4076 261.757L70.6977 261.979C77.0604 266.928 83.0607 267.082 88.1859 262.331L88.6791 261.855C92.7073 257.827 97.1058 257.755 102.408 261.757L102.698 261.979C109.06 266.928 115.061 267.082 120.186 262.331L120.679 261.855C124.707 257.827 129.106 257.755 134.408 261.757L134.698 261.979C141.06 266.928 147.061 267.082 152.186 262.331L152.679 261.855C156.707 257.827 161.106 257.755 166.408 261.757L166.698 261.979C173.06 266.928 179.061 267.082 184.186 262.331L184.679 261.855C188.707 257.827 193.106 257.755 198.408 261.757L198.698 261.979C205.06 266.928 211.061 267.082 216.186 262.331L216.679 261.855C220.707 257.827 225.106 257.755 230.408 261.757L230.698 261.979C237.06 266.928 243.061 267.082 248.186 262.331L248.679 261.855C252.707 257.827 257.106 257.755 262.408 261.757L262.698 261.979C269.06 266.928 275.061 267.082 280.186 262.331L280.679 261.855C284.707 257.827 289.106 257.755 294.408 261.757L294.698 261.979C301.266 267.088 307.447 267.087 312.679 261.855C313.265 261.27 313.265 260.32 312.679 259.734C312.093 259.149 311.144 259.149 310.558 259.734C306.53 263.762 302.131 263.834 296.829 259.833L296.539 259.611C289.971 254.503 283.79 254.502 278.558 259.734C274.53 263.762 270.131 263.834 264.829 259.833L264.539 259.611C257.971 254.503 251.79 254.502 246.558 259.734C242.53 263.762 238.131 263.834 232.829 259.833L232.539 259.611C225.971 254.503 219.79 254.502 214.558 259.734C210.53 263.762 206.131 263.834 200.829 259.833L200.539 259.611C193.971 254.503 187.79 254.502 182.558 259.734C178.53 263.762 174.131 263.834 168.829 259.833L168.539 259.611C161.971 254.503 155.79 254.502 150.558 259.734C146.53 263.762 142.131 263.834 136.829 259.833L136.539 259.611C129.971 254.503 123.79 254.502 118.558 259.734C114.53 263.762 110.131 263.834 104.829 259.833L104.539 259.611C97.9714 254.503 91.7899 254.502 86.558 259.734C82.5298 263.762 78.1314 263.834 72.8295 259.833L72.5395 259.611ZM72.5395 235.611C65.9714 230.503 59.7899 230.502 54.558 235.734C53.9722 236.32 53.9723 237.27 54.558 237.855C55.1438 238.441 56.0933 238.441 56.6791 237.855C60.7073 233.827 65.1058 233.755 70.4076 237.757L70.6977 237.979C77.0604 242.928 83.0607 243.082 88.1859 238.331L88.6791 237.855C92.7073 233.827 97.1058 233.755 102.408 237.757L102.698 237.979C109.06 242.928 115.061 243.082 120.186 238.331L120.679 237.855C124.707 233.827 129.106 233.755 134.408 237.757L134.698 237.979C141.06 242.928 147.061 243.082 152.186 238.331L152.679 237.855C156.707 233.827 161.106 233.755 166.408 237.757L166.698 237.979C173.06 242.928 179.061 243.082 184.186 238.331L184.679 237.855C188.707 233.827 193.106 233.755 198.408 237.757L198.698 237.979C205.06 242.928 211.061 243.082 216.186 238.331L216.679 237.855C220.707 233.827 225.106 233.755 230.408 237.757L230.698 237.979C237.06 242.928 243.061 243.082 248.186 238.331L248.679 237.855C252.707 233.827 257.106 233.755 262.408 237.757L262.698 237.979C269.06 242.928 275.061 243.082 280.186 238.331L280.679 237.855C284.707 233.827 289.106 233.755 294.408 237.757L294.698 237.979C301.266 243.088 307.447 243.087 312.679 237.855C313.265 237.27 313.265 236.32 312.679 235.734C312.093 235.149 311.144 235.149 310.558 235.734C306.53 239.762 302.131 239.834 296.829 235.833L296.539 235.611C289.971 230.503 283.79 230.502 278.558 235.734C274.53 239.762 270.131 239.834 264.829 235.833L264.539 235.611C257.971 230.503 251.79 230.502 246.558 235.734C242.53 239.762 238.131 239.834 232.829 235.833L232.539 235.611C225.971 230.503 219.79 230.502 214.558 235.734C210.53 239.762 206.131 239.834 200.829 235.833L200.539 235.611C193.971 230.503 187.79 230.502 182.558 235.734C178.53 239.762 174.131 239.834 168.829 235.833L168.539 235.611C161.971 230.503 155.79 230.502 150.558 235.734C146.53 239.762 142.131 239.834 136.829 235.833L136.539 235.611C129.971 230.503 123.79 230.502 118.558 235.734C114.53 239.762 110.131 239.834 104.829 235.833L104.539 235.611C97.9714 230.503 91.7899 230.502 86.558 235.734C82.5298 239.762 78.1314 239.834 72.8295 235.833L72.5395 235.611ZM72.5395 211.611C65.9714 206.503 59.7899 206.502 54.558 211.734C53.9722 212.32 53.9723 213.27 54.558 213.855C55.1438 214.441 56.0933 214.441 56.6791 213.855C60.7073 209.827 65.1058 209.755 70.4076 213.757L70.6977 213.979C77.0604 218.928 83.0607 219.082 88.1859 214.331L88.6791 213.855C92.7073 209.827 97.1058 209.755 102.408 213.757L102.698 213.979C109.06 218.928 115.061 219.082 120.186 214.331L120.679 213.855C124.707 209.827 129.106 209.755 134.408 213.757L134.698 213.979C141.06 218.928 147.061 219.082 152.186 214.331L152.679 213.855C156.707 209.827 161.106 209.755 166.408 213.757L166.698 213.979C173.06 218.928 179.061 219.082 184.186 214.331L184.679 213.855C188.707 209.827 193.106 209.755 198.408 213.757L198.698 213.979C205.06 218.928 211.061 219.082 216.186 214.331L216.679 213.855C220.707 209.827 225.106 209.755 230.408 213.757L230.698 213.979C237.06 218.928 243.061 219.082 248.186 214.331L248.679 213.855C252.707 209.827 257.106 209.755 262.408 213.757L262.698 213.979C269.06 218.928 275.061 219.082 280.186 214.331L280.679 213.855C284.707 209.827 289.106 209.755 294.408 213.757L294.698 213.979C301.266 219.088 307.447 219.087 312.679 213.855C313.265 213.27 313.265 212.32 312.679 211.734C312.093 211.149 311.144 211.149 310.558 211.734C306.53 215.762 302.131 215.834 296.829 211.833L296.539 211.611C289.971 206.503 283.79 206.502 278.558 211.734C274.53 215.762 270.131 215.834 264.829 211.833L264.539 211.611C257.971 206.503 251.79 206.502 246.558 211.734C242.53 215.762 238.131 215.834 232.829 211.833L232.539 211.611C225.971 206.503 219.79 206.502 214.558 211.734C210.53 215.762 206.131 215.834 200.829 211.833L200.539 211.611C193.971 206.503 187.79 206.502 182.558 211.734C178.53 215.762 174.131 215.834 168.829 211.833L168.539 211.611C161.971 206.503 155.79 206.502 150.558 211.734C146.53 215.762 142.131 215.834 136.829 211.833L136.539 211.611C129.971 206.503 123.79 206.502 118.558 211.734C114.53 215.762 110.131 215.834 104.829 211.833L104.539 211.611C97.9714 206.503 91.7899 206.502 86.558 211.734C82.5298 215.762 78.1314 215.834 72.8295 211.833L72.5395 211.611ZM72.5395 187.611C65.9714 182.503 59.7899 182.502 54.558 187.734C53.9722 188.32 53.9723 189.27 54.558 189.855C55.1438 190.441 56.0933 190.441 56.6791 189.855C60.7073 185.827 65.1058 185.755 70.4076 189.757L70.6977 189.979C77.0604 194.928 83.0607 195.082 88.1859 190.331L88.6791 189.855C92.7073 185.827 97.1058 185.755 102.408 189.757L102.698 189.979C109.06 194.928 115.061 195.082 120.186 190.331L120.679 189.855C124.707 185.827 129.106 185.755 134.408 189.757L134.698 189.979C141.06 194.928 147.061 195.082 152.186 190.331L152.679 189.855C156.707 185.827 161.106 185.755 166.408 189.757L166.698 189.979C173.06 194.928 179.061 195.082 184.186 190.331L184.679 189.855C188.707 185.827 193.106 185.755 198.408 189.757L198.698 189.979C205.06 194.928 211.061 195.082 216.186 190.331L216.679 189.855C220.707 185.827 225.106 185.755 230.408 189.757L230.698 189.979C237.06 194.928 243.061 195.082 248.186 190.331L248.679 189.855C252.707 185.827 257.106 185.755 262.408 189.757L262.698 189.979C269.06 194.928 275.061 195.082 280.186 190.331L280.679 189.855C284.707 185.827 289.106 185.755 294.408 189.757L294.698 189.979C301.266 195.088 307.447 195.087 312.679 189.855C313.265 189.27 313.265 188.32 312.679 187.734C312.093 187.149 311.144 187.149 310.558 187.734C306.53 191.762 302.131 191.834 296.829 187.833L296.539 187.611C289.971 182.503 283.79 182.502 278.558 187.734C274.53 191.762 270.131 191.834 264.829 187.833L264.539 187.611C257.971 182.503 251.79 182.502 246.558 187.734C242.53 191.762 238.131 191.834 232.829 187.833L232.539 187.611C225.971 182.503 219.79 182.502 214.558 187.734C210.53 191.762 206.131 191.834 200.829 187.833L200.539 187.611C193.971 182.503 187.79 182.502 182.558 187.734C178.53 191.762 174.131 191.834 168.829 187.833L168.539 187.611C161.971 182.503 155.79 182.502 150.558 187.734C146.53 191.762 142.131 191.834 136.829 187.833L136.539 187.611C129.971 182.503 123.79 182.502 118.558 187.734C114.53 191.762 110.131 191.834 104.829 187.833L104.539 187.611C97.9714 182.503 91.7899 182.502 86.558 187.734C82.5298 191.762 78.1314 191.834 72.8295 187.833L72.5395 187.611ZM72.5395 163.611C65.9714 158.503 59.7899 158.502 54.558 163.734C53.9722 164.32 53.9723 165.27 54.558 165.855C55.1438 166.441 56.0933 166.441 56.6791 165.855C60.7073 161.827 65.1058 161.755 70.4076 165.757L70.6977 165.979C77.0604 170.928 83.0607 171.082 88.1859 166.331L88.6791 165.855C92.7073 161.827 97.1058 161.755 102.408 165.757L102.698 165.979C109.06 170.928 115.061 171.082 120.186 166.331L120.679 165.855C124.707 161.827 129.106 161.755 134.408 165.757L134.698 165.979C141.06 170.928 147.061 171.082 152.186 166.331L152.679 165.855C156.707 161.827 161.106 161.755 166.408 165.757L166.698 165.979C173.06 170.928 179.061 171.082 184.186 166.331L184.679 165.855C188.707 161.827 193.106 161.755 198.408 165.757L198.698 165.979C205.06 170.928 211.061 171.082 216.186 166.331L216.679 165.855C220.707 161.827 225.106 161.755 230.408 165.757L230.698 165.979C237.06 170.928 243.061 171.082 248.186 166.331L248.679 165.855C252.707 161.827 257.106 161.755 262.408 165.757L262.698 165.979C269.06 170.928 275.061 171.082 280.186 166.331L280.679 165.855C284.707 161.827 289.106 161.755 294.408 165.757L294.698 165.979C301.266 171.088 307.447 171.087 312.679 165.855C313.265 165.27 313.265 164.32 312.679 163.734C312.093 163.149 311.144 163.149 310.558 163.734C306.53 167.762 302.131 167.834 296.829 163.833L296.539 163.611C289.971 158.503 283.79 158.502 278.558 163.734C274.53 167.762 270.131 167.834 264.829 163.833L264.539 163.611C257.971 158.503 251.79 158.502 246.558 163.734C242.53 167.762 238.131 167.834 232.829 163.833L232.539 163.611C225.971 158.503 219.79 158.502 214.558 163.734C210.53 167.762 206.131 167.834 200.829 163.833L200.539 163.611C193.971 158.503 187.79 158.502 182.558 163.734C178.53 167.762 174.131 167.834 168.829 163.833L168.539 163.611C161.971 158.503 155.79 158.502 150.558 163.734C146.53 167.762 142.131 167.834 136.829 163.833L136.539 163.611C129.971 158.503 123.79 158.502 118.558 163.734C114.53 167.762 110.131 167.834 104.829 163.833L104.539 163.611C97.9714 158.503 91.7899 158.502 86.558 163.734C82.5298 167.762 78.1314 167.834 72.8295 163.833L72.5395 163.611ZM72.5395 139.611C65.9714 134.503 59.7899 134.502 54.558 139.734C53.9722 140.32 53.9723 141.27 54.558 141.855C55.1438 142.441 56.0933 142.441 56.6791 141.855C60.7073 137.827 65.1058 137.755 70.4076 141.757L70.6977 141.979C77.0604 146.928 83.0607 147.082 88.1859 142.331L88.6791 141.855C92.7073 137.827 97.1058 137.755 102.408 141.757L102.698 141.979C109.06 146.928 115.061 147.082 120.186 142.331L120.679 141.855C124.707 137.827 129.106 137.755 134.408 141.757L134.698 141.979C141.06 146.928 147.061 147.082 152.186 142.331L152.679 141.855C156.707 137.827 161.106 137.755 166.408 141.757L166.698 141.979C173.06 146.928 179.061 147.082 184.186 142.331L184.679 141.855C188.707 137.827 193.106 137.755 198.408 141.757L198.698 141.979C205.06 146.928 211.061 147.082 216.186 142.331L216.679 141.855C220.707 137.827 225.106 137.755 230.408 141.757L230.698 141.979C237.06 146.928 243.061 147.082 248.186 142.331L248.679 141.855C252.707 137.827 257.106 137.755 262.408 141.757L262.698 141.979C269.06 146.928 275.061 147.082 280.186 142.331L280.679 141.855C284.707 137.827 289.106 137.755 294.408 141.757L294.698 141.979C301.266 147.088 307.447 147.087 312.679 141.855C313.265 141.27 313.265 140.32 312.679 139.734C312.093 139.149 311.144 139.149 310.558 139.734C306.53 143.762 302.131 143.834 296.829 139.833L296.539 139.611C289.971 134.503 283.79 134.502 278.558 139.734C274.53 143.762 270.131 143.834 264.829 139.833L264.539 139.611C257.971 134.503 251.79 134.502 246.558 139.734C242.53 143.762 238.131 143.834 232.829 139.833L232.539 139.611C225.971 134.503 219.79 134.502 214.558 139.734C210.53 143.762 206.131 143.834 200.829 139.833L200.539 139.611C193.971 134.503 187.79 134.502 182.558 139.734C178.53 143.762 174.131 143.834 168.829 139.833L168.539 139.611C161.971 134.503 155.79 134.502 150.558 139.734C146.53 143.762 142.131 143.834 136.829 139.833L136.539 139.611C129.971 134.503 123.79 134.502 118.558 139.734C114.53 143.762 110.131 143.834 104.829 139.833L104.539 139.611C97.9714 134.503 91.7899 134.502 86.558 139.734C82.5298 143.762 78.1314 143.834 72.8295 139.833L72.5395 139.611ZM72.5395 115.611C65.9714 110.503 59.7899 110.502 54.558 115.734C53.9722 116.32 53.9723 117.27 54.558 117.855C55.1438 118.441 56.0933 118.441 56.6791 117.855C60.7073 113.827 65.1058 113.755 70.4076 117.757L70.6977 117.979C77.0604 122.928 83.0607 123.082 88.1859 118.331L88.6791 117.855C92.7073 113.827 97.1058 113.755 102.408 117.757L102.698 117.979C109.06 122.928 115.061 123.082 120.186 118.331L120.679 117.855C124.707 113.827 129.106 113.755 134.408 117.757L134.698 117.979C141.06 122.928 147.061 123.082 152.186 118.331L152.679 117.855C156.707 113.827 161.106 113.755 166.408 117.757L166.698 117.979C173.06 122.928 179.061 123.082 184.186 118.331L184.679 117.855C188.707 113.827 193.106 113.755 198.408 117.757L198.698 117.979C205.06 122.928 211.061 123.082 216.186 118.331L216.679 117.855C220.707 113.827 225.106 113.755 230.408 117.757L230.698 117.979C237.06 122.928 243.061 123.082 248.186 118.331L248.679 117.855C252.707 113.827 257.106 113.755 262.408 117.757L262.698 117.979C269.06 122.928 275.061 123.082 280.186 118.331L280.679 117.855C284.707 113.827 289.106 113.755 294.408 117.757L294.698 117.979C301.266 123.088 307.447 123.087 312.679 117.855C313.265 117.27 313.265 116.32 312.679 115.734C312.093 115.149 311.144 115.149 310.558 115.734C306.53 119.762 302.131 119.834 296.829 115.833L296.539 115.611C289.971 110.503 283.79 110.502 278.558 115.734C274.53 119.762 270.131 119.834 264.829 115.833L264.539 115.611C257.971 110.503 251.79 110.502 246.558 115.734C242.53 119.762 238.131 119.834 232.829 115.833L232.539 115.611C225.971 110.503 219.79 110.502 214.558 115.734C210.53 119.762 206.131 119.834 200.829 115.833L200.539 115.611C193.971 110.503 187.79 110.502 182.558 115.734C178.53 119.762 174.131 119.834 168.829 115.833L168.539 115.611C161.971 110.503 155.79 110.502 150.558 115.734C146.53 119.762 142.131 119.834 136.829 115.833L136.539 115.611C129.971 110.503 123.79 110.502 118.558 115.734C114.53 119.762 110.131 119.834 104.829 115.833L104.539 115.611C97.9714 110.503 91.7899 110.502 86.558 115.734C82.5298 119.762 78.1314 119.834 72.8295 115.833L72.5395 115.611Z" fill="white"/>
</g>
<path d="M115.566 184.701L128.617 188.198L107.248 267.951C116.437 280.162 130.987 288.104 147.445 288.104H198.555C226.144 288.104 248.509 265.746 248.509 238.157V184.701H115.566Z" fill="url(#paint5_linear_129_350)"/>
<path fill-rule="evenodd" clip-rule="evenodd" d="M100.034 305.506L131.58 187.773L72.7138 172C72.7138 172 41.1675 289.733 100.034 305.506Z" fill="url(#paint6_linear_129_350)"/>
<path fill-rule="evenodd" clip-rule="evenodd" d="M281.034 191.506L312.58 73.7735L253.714 58.0003C253.714 58.0003 222.167 175.733 281.034 191.506Z" fill="url(#paint7_linear_129_350)"/>
<path d="M155.829 378.782L133.482 462.185C142.683 472.303 155.903 478.688 170.657 478.688H221.768C249.356 478.688 271.72 456.329 271.721 428.741V375.285H142.778L155.829 378.782Z" fill="url(#paint8_linear_129_350)"/>
<ellipse cx="21.6001" cy="19.346" rx="21.6001" ry="19.346" transform="matrix(-1 0 0 1 194.168 38.6924)" fill="#FAB4CC"/>
<ellipse cx="21.6001" cy="19.346" rx="21.6001" ry="19.346" transform="matrix(-1 0 0 1 194.168 38.6924)" fill="url(#paint9_linear_129_350)"/>
<path d="M152.169 0C134.801 0 122.418 15.5252 122.172 33.8372L122.169 34.3929V56.9633H141.369V34.3929C141.369 24.3079 146.961 17.1965 152.169 17.1965C157.301 17.1965 162.807 24.1032 162.965 33.9564L162.969 34.3929H182.169C182.169 15.8405 169.711 0 152.169 0Z" fill="#151A21"/>
<ellipse cx="21.6001" cy="11.2852" rx="21.6001" ry="11.2852" transform="matrix(-1 0 0 1 194.168 34.3936)" fill="#151A21"/>
<ellipse cx="21.6001" cy="11.2852" rx="21.6001" ry="11.2852" transform="matrix(-1 0 0 1 194.168 34.3936)" fill="url(#paint10_linear_129_350)"/>
<rect width="28.8001" height="8.59824" rx="3.75" transform="matrix(-1 0 0 1 186.969 30.0938)" fill="white"/>
<rect width="28.8001" height="8.59824" rx="3.75" transform="matrix(-1 0 0 1 186.969 30.0938)" fill="url(#paint11_linear_129_350)"/>
<defs>
<linearGradient id="paint0_linear_129_350" x1="42.3862" y1="15.2524" x2="269.895" y2="5.12828" gradientUnits="userSpaceOnUse">
<stop stop-color="#78C6E7"/>
<stop offset="0.504253" stop-color="#94E0F6"/>
<stop offset="1" stop-color="#EBDDF5"/>
</linearGradient>
<linearGradient id="paint1_linear_129_350" x1="-126.958" y1="51.9385" x2="259.256" y2="14.9144" gradientUnits="userSpaceOnUse">
<stop stop-color="#78C6E7"/>
<stop offset="0.504253" stop-color="#94E0F6"/>
<stop offset="1" stop-color="#EBDDF5"/>
</linearGradient>
<linearGradient id="paint2_linear_129_350" x1="341.439" y1="520.516" x2="121.74" y2="528.736" gradientUnits="userSpaceOnUse">
<stop stop-color="white"/>
<stop offset="1" stop-color="white" stop-opacity="0.01"/>
</linearGradient>
<linearGradient id="paint3_linear_129_350" x1="91.0737" y1="314.035" x2="96.6435" y2="293.248" gradientUnits="userSpaceOnUse">
<stop stop-color="#AE7D8E" stop-opacity="0.01"/>
<stop offset="1" stop-color="#AE7D8E"/>
</linearGradient>
<linearGradient id="paint4_linear_129_350" x1="305.42" y1="69.9007" x2="297.731" y2="90.0007" gradientUnits="userSpaceOnUse">
<stop stop-color="#AE7D8E" stop-opacity="0.01"/>
<stop offset="1" stop-color="#AE7D8E"/>
</linearGradient>
<linearGradient id="paint5_linear_129_350" x1="165.898" y1="477.422" x2="75.8182" y2="239.721" gradientUnits="userSpaceOnUse">
<stop stop-color="white"/>
<stop offset="1" stop-color="white" stop-opacity="0.01"/>
</linearGradient>
<linearGradient id="paint6_linear_129_350" x1="135.998" y1="392.007" x2="40.7135" y2="349.816" gradientUnits="userSpaceOnUse">
<stop stop-color="white"/>
<stop offset="1" stop-color="white" stop-opacity="0.01"/>
</linearGradient>
<linearGradient id="paint7_linear_129_350" x1="316.998" y1="278.007" x2="221.713" y2="235.816" gradientUnits="userSpaceOnUse">
<stop stop-color="white"/>
<stop offset="1" stop-color="white" stop-opacity="0.01"/>
</linearGradient>
<linearGradient id="paint8_linear_129_350" x1="448.352" y1="918.203" x2="160.563" y2="828.101" gradientUnits="userSpaceOnUse">
<stop stop-color="white"/>
<stop offset="1" stop-color="white" stop-opacity="0.01"/>
</linearGradient>
<linearGradient id="paint9_linear_129_350" x1="-0.107813" y1="38.7341" x2="38.422" y2="81.8742" gradientUnits="userSpaceOnUse">
<stop stop-color="#AE7D8E" stop-opacity="0.01"/>
<stop offset="1" stop-color="#AE7D8E"/>
</linearGradient>
<linearGradient id="paint10_linear_129_350" x1="48.0651" y1="11.8705" x2="36.9212" y2="-15.1457" gradientUnits="userSpaceOnUse">
<stop stop-color="#44484D" stop-opacity="0.01"/>
<stop offset="1" stop-color="#44484D"/>
</linearGradient>
<linearGradient id="paint11_linear_129_350" x1="-9.19808" y1="3.13198" x2="-7.09861" y2="22.1807" gradientUnits="userSpaceOnUse">
<stop stop-color="#999DCF" stop-opacity="0.01"/>
<stop offset="1" stop-color="#999DCF"/>
</linearGradient>
</defs>
</svg>
