<svg width="1533" height="1533" viewBox="0 0 1533 1533" fill="none" xmlns="http://www.w3.org/2000/svg">
<path d="M1533 766.5C1533 1189.83 1189.83 1533 766.5 1533C343.174 1533 0 1189.83 0 766.5C0 343.174 343.174 0 766.5 0C1189.83 0 1533 343.174 1533 766.5Z" fill="url(#paint0_radial_107_383)"/>
<path d="M855.2 1033.8C855.2 1181.59 735.391 1301.4 587.6 1301.4C439.809 1301.4 320 1181.59 320 1033.8C320 886.008 439.809 766.199 587.6 766.199C735.391 766.199 855.2 886.008 855.2 1033.8Z" fill="#FAB4CC"/>
<path d="M855.2 1033.8C855.2 1181.59 735.391 1301.4 587.6 1301.4C439.809 1301.4 320 1181.59 320 1033.8C320 886.008 439.809 766.199 587.6 766.199C735.391 766.199 855.2 886.008 855.2 1033.8Z" fill="url(#paint1_linear_107_383)"/>
<path d="M840.333 231C1055.49 231 1208.91 445.75 1211.95 699.046L1212 706.733V1018.93H974.133V706.733C974.133 567.234 904.848 468.867 840.333 468.867C776.754 468.867 708.541 564.403 706.577 700.694L706.533 706.733H468.667C468.667 450.11 622.999 231 840.333 231Z" fill="#151A21"/>
<path d="M855.2 862.832C855.2 949.044 735.391 1018.93 587.6 1018.93C439.809 1018.93 320 949.044 320 862.832C320 776.621 439.809 706.732 587.6 706.732C735.391 706.732 855.2 776.621 855.2 862.832Z" fill="#151A21"/>
<path d="M855.2 862.832C855.2 949.044 735.391 1018.93 587.6 1018.93C439.809 1018.93 320 949.044 320 862.832C320 776.621 439.809 706.732 587.6 706.732C735.391 706.732 855.2 776.621 855.2 862.832Z" fill="url(#paint2_linear_107_383)"/>
<path d="M409.2 651.018C409.2 648.947 410.879 647.268 412.95 647.268H762.25C764.321 647.268 766 648.947 766 651.018V762.451C766 764.522 764.321 766.201 762.25 766.201H412.95C410.879 766.201 409.2 764.522 409.2 762.451V651.018Z" fill="white"/>
<path d="M409.2 651.018C409.2 648.947 410.879 647.268 412.95 647.268H762.25C764.321 647.268 766 648.947 766 651.018V762.451C766 764.522 764.321 766.201 762.25 766.201H412.95C410.879 766.201 409.2 764.522 409.2 762.451V651.018Z" fill="url(#paint3_linear_107_383)"/>
<defs>
<radialGradient id="paint0_radial_107_383" cx="0" cy="0" r="1" gradientUnits="userSpaceOnUse" gradientTransform="translate(1503.24 28.7277) rotate(136.012) scale(2165.94)">
<stop stop-color="#ECBACB"/>
<stop offset="0.488176" stop-color="#EBDDF5"/>
<stop offset="1" stop-color="#9ADBED"/>
</radialGradient>
<linearGradient id="paint1_linear_107_383" x1="318.664" y1="1301.98" x2="855.026" y2="1839.85" gradientUnits="userSpaceOnUse">
<stop stop-color="#AE7D8E" stop-opacity="0.01"/>
<stop offset="1" stop-color="#AE7D8E"/>
</linearGradient>
<linearGradient id="paint2_linear_107_383" x1="915.471" y1="870.929" x2="749.323" y2="510.169" gradientUnits="userSpaceOnUse">
<stop stop-color="#44484D" stop-opacity="0.01"/>
<stop offset="1" stop-color="#44484D"/>
</linearGradient>
<linearGradient id="paint3_linear_107_383" x1="295.247" y1="690.59" x2="327.575" y2="953.3" gradientUnits="userSpaceOnUse">
<stop stop-color="#999DCF" stop-opacity="0.01"/>
<stop offset="1" stop-color="#999DCF"/>
</linearGradient>
</defs>
</svg>
